<mxfile host="app.diagrams.net" modified="2024-07-16T03:45:41.873Z" agent="Mozilla/5.0 (Windows NT 10.0; Win64; x64) AppleWebKit/537.36 (KHTML, like Gecko) Chrome/126.0.0.0 Safari/537.36" etag="uU-KWcbZUiv8d55T30RS" version="24.6.5" type="device" pages="2">
  <diagram name="페이지-1" id="FBjnpI0jLDktlnYusSt3">
    <mxGraphModel dx="1434" dy="1949" grid="1" gridSize="10" guides="1" tooltips="1" connect="1" arrows="1" fold="1" page="1" pageScale="1" pageWidth="827" pageHeight="1169" math="0" shadow="0">
      <root>
        <mxCell id="0" />
        <mxCell id="1" parent="0" />
        <mxCell id="0dvyu7xRg7RrmKDCG1FK-1" value="비회원" style="rounded=1;whiteSpace=wrap;html=1;fillColor=#fff2cc;strokeColor=#d6b656;" parent="1" vertex="1">
          <mxGeometry x="302.07000000000005" y="-90" width="79" height="30" as="geometry" />
        </mxCell>
        <mxCell id="0dvyu7xRg7RrmKDCG1FK-4" value="회원가입" style="rounded=1;whiteSpace=wrap;html=1;fillColor=#fff2cc;strokeColor=#d6b656;" parent="1" vertex="1">
          <mxGeometry x="301.07000000000005" y="-50" width="80" height="30" as="geometry" />
        </mxCell>
        <mxCell id="0dvyu7xRg7RrmKDCG1FK-15" value="마이페이지" style="rounded=1;whiteSpace=wrap;html=1;fillColor=#fff2cc;strokeColor=#d6b656;" parent="1" vertex="1">
          <mxGeometry x="610" y="-40" width="80" height="30" as="geometry" />
        </mxCell>
        <mxCell id="0dvyu7xRg7RrmKDCG1FK-17" value="회원 정보" style="rounded=1;whiteSpace=wrap;html=1;fillColor=#ffffff;strokeColor=#d6b656;fontSize=11;" parent="1" vertex="1">
          <mxGeometry x="610" width="80" height="20" as="geometry" />
        </mxCell>
        <mxCell id="0dvyu7xRg7RrmKDCG1FK-23" value="" style="edgeStyle=orthogonalEdgeStyle;rounded=0;orthogonalLoop=1;jettySize=auto;html=1;endArrow=none;endFill=0;strokeColor=#9e9e9e;exitX=0.5;exitY=0;exitDx=0;exitDy=0;entryX=0.5;entryY=1;entryDx=0;entryDy=0;" parent="1" source="0dvyu7xRg7RrmKDCG1FK-17" target="0dvyu7xRg7RrmKDCG1FK-15" edge="1">
          <mxGeometry relative="1" as="geometry">
            <mxPoint x="785" y="-5" as="sourcePoint" />
            <mxPoint x="700" y="-5" as="targetPoint" />
            <Array as="points" />
          </mxGeometry>
        </mxCell>
        <mxCell id="0dvyu7xRg7RrmKDCG1FK-30" value="라이브러리" style="rounded=1;whiteSpace=wrap;html=1;fillColor=#fff2cc;strokeColor=#d6b656;" parent="1" vertex="1">
          <mxGeometry x="551.0699999999999" y="179" width="80" height="30" as="geometry" />
        </mxCell>
        <mxCell id="0dvyu7xRg7RrmKDCG1FK-31" value="좋아요 목록" style="rounded=1;whiteSpace=wrap;html=1;fillColor=#ffffff;strokeColor=#d6b656;" parent="1" vertex="1">
          <mxGeometry x="546.0699999999999" y="219" width="90" height="30" as="geometry" />
        </mxCell>
        <mxCell id="0dvyu7xRg7RrmKDCG1FK-32" value="플레이리스트" style="rounded=1;whiteSpace=wrap;html=1;fillColor=#ffffff;strokeColor=#d6b656;" parent="1" vertex="1">
          <mxGeometry x="546.0699999999999" y="259" width="90" height="30" as="geometry" />
        </mxCell>
        <mxCell id="0dvyu7xRg7RrmKDCG1FK-33" value="&lt;font style=&quot;font-size: 9px;&quot;&gt;받은 쪽지&lt;/font&gt;" style="rounded=1;whiteSpace=wrap;html=1;fillColor=#ffffff;strokeColor=#d6b656;" parent="1" vertex="1">
          <mxGeometry x="250.07" y="110" width="60" height="20" as="geometry" />
        </mxCell>
        <mxCell id="0dvyu7xRg7RrmKDCG1FK-34" value="&lt;div style=&quot;font-size: 10px;&quot;&gt;&lt;font style=&quot;font-size: 10px;&quot;&gt;작성 게시글&amp;nbsp;&lt;/font&gt;&lt;span style=&quot;background-color: initial;&quot;&gt;조회&lt;/span&gt;&lt;/div&gt;" style="rounded=1;whiteSpace=wrap;html=1;fillColor=#ffffff;strokeColor=#d6b656;fontSize=11;" parent="1" vertex="1">
          <mxGeometry x="610" y="30" width="80" height="20" as="geometry" />
        </mxCell>
        <mxCell id="0dvyu7xRg7RrmKDCG1FK-35" value="&lt;div style=&quot;font-size: 10px;&quot;&gt;작성 댓글&amp;nbsp;&lt;span style=&quot;background-color: initial;&quot;&gt;조회&amp;nbsp;&lt;/span&gt;&lt;/div&gt;" style="rounded=1;whiteSpace=wrap;html=1;fillColor=#ffffff;strokeColor=#d6b656;fontSize=11;" parent="1" vertex="1">
          <mxGeometry x="610" y="60" width="80" height="20" as="geometry" />
        </mxCell>
        <mxCell id="0dvyu7xRg7RrmKDCG1FK-37" value="" style="edgeStyle=orthogonalEdgeStyle;rounded=0;orthogonalLoop=1;jettySize=auto;html=1;endArrow=none;endFill=0;strokeColor=#9e9e9e;entryX=0.5;entryY=1;entryDx=0;entryDy=0;" parent="1" edge="1">
          <mxGeometry relative="1" as="geometry">
            <mxPoint x="649.7500000000001" y="60" as="sourcePoint" />
            <mxPoint x="649.7500000000001" y="50" as="targetPoint" />
            <Array as="points" />
          </mxGeometry>
        </mxCell>
        <mxCell id="0dvyu7xRg7RrmKDCG1FK-38" value="쪽지함" style="rounded=1;whiteSpace=wrap;html=1;fillColor=#fff2cc;strokeColor=#d6b656;" parent="1" vertex="1">
          <mxGeometry x="305.07" y="60" width="80" height="30" as="geometry" />
        </mxCell>
        <mxCell id="0dvyu7xRg7RrmKDCG1FK-43" value="" style="edgeStyle=orthogonalEdgeStyle;rounded=0;orthogonalLoop=1;jettySize=auto;html=1;endArrow=none;endFill=0;strokeColor=#9e9e9e;exitX=0.5;exitY=0;exitDx=0;exitDy=0;entryX=0.5;entryY=1;entryDx=0;entryDy=0;" parent="1" source="0dvyu7xRg7RrmKDCG1FK-31" target="0dvyu7xRg7RrmKDCG1FK-30" edge="1">
          <mxGeometry relative="1" as="geometry">
            <mxPoint x="690.0699999999999" y="159" as="sourcePoint" />
            <mxPoint x="605.0699999999999" y="159" as="targetPoint" />
            <Array as="points" />
          </mxGeometry>
        </mxCell>
        <mxCell id="0dvyu7xRg7RrmKDCG1FK-46" value="" style="edgeStyle=orthogonalEdgeStyle;rounded=0;orthogonalLoop=1;jettySize=auto;html=1;endArrow=none;endFill=0;strokeColor=#9e9e9e;exitX=0.5;exitY=0;exitDx=0;exitDy=0;entryX=0.5;entryY=1;entryDx=0;entryDy=0;" parent="1" source="0dvyu7xRg7RrmKDCG1FK-32" target="0dvyu7xRg7RrmKDCG1FK-31" edge="1">
          <mxGeometry relative="1" as="geometry">
            <mxPoint x="774.0699999999999" y="213.65999999999997" as="sourcePoint" />
            <mxPoint x="689.0699999999999" y="213.65999999999997" as="targetPoint" />
            <Array as="points" />
          </mxGeometry>
        </mxCell>
        <mxCell id="0dvyu7xRg7RrmKDCG1FK-47" value="&lt;font style=&quot;font-size: 9px;&quot;&gt;보낸 쪽지&lt;/font&gt;" style="rounded=1;whiteSpace=wrap;html=1;fillColor=#ffffff;strokeColor=#d6b656;" parent="1" vertex="1">
          <mxGeometry x="315.07" y="110" width="60" height="20" as="geometry" />
        </mxCell>
        <mxCell id="0dvyu7xRg7RrmKDCG1FK-48" value="&lt;font style=&quot;font-size: 9px;&quot;&gt;보관함&lt;/font&gt;" style="rounded=1;whiteSpace=wrap;html=1;fillColor=#ffffff;strokeColor=#d6b656;" parent="1" vertex="1">
          <mxGeometry x="381.07" y="110" width="60" height="20" as="geometry" />
        </mxCell>
        <mxCell id="0dvyu7xRg7RrmKDCG1FK-50" value="" style="edgeStyle=orthogonalEdgeStyle;rounded=0;orthogonalLoop=1;jettySize=auto;html=1;endArrow=none;endFill=0;strokeColor=#9e9e9e;entryX=0.5;entryY=1;entryDx=0;entryDy=0;" parent="1" source="0dvyu7xRg7RrmKDCG1FK-47" target="0dvyu7xRg7RrmKDCG1FK-38" edge="1">
          <mxGeometry relative="1" as="geometry">
            <mxPoint x="635.0699999999999" y="74.71000000000004" as="sourcePoint" />
            <mxPoint x="480.07" y="74.71000000000004" as="targetPoint" />
            <Array as="points" />
          </mxGeometry>
        </mxCell>
        <mxCell id="0dvyu7xRg7RrmKDCG1FK-51" value="" style="edgeStyle=orthogonalEdgeStyle;rounded=0;orthogonalLoop=1;jettySize=auto;html=1;endArrow=none;endFill=0;strokeColor=#9e9e9e;exitX=0.5;exitY=0;exitDx=0;exitDy=0;entryX=0.5;entryY=0;entryDx=0;entryDy=0;" parent="1" source="0dvyu7xRg7RrmKDCG1FK-48" target="0dvyu7xRg7RrmKDCG1FK-33" edge="1">
          <mxGeometry relative="1" as="geometry">
            <mxPoint x="422.57" y="100" as="sourcePoint" />
            <mxPoint x="267.57" y="100" as="targetPoint" />
            <Array as="points">
              <mxPoint x="411.07" y="100" />
              <mxPoint x="280.07" y="100" />
            </Array>
          </mxGeometry>
        </mxCell>
        <mxCell id="0dvyu7xRg7RrmKDCG1FK-52" value="커뮤니티" style="rounded=1;whiteSpace=wrap;html=1;fillColor=#fff2cc;strokeColor=#d6b656;" parent="1" vertex="1">
          <mxGeometry x="330.07" y="179" width="80" height="30" as="geometry" />
        </mxCell>
        <mxCell id="0dvyu7xRg7RrmKDCG1FK-66" value="뮤즈 마켓" style="rounded=1;whiteSpace=wrap;html=1;fillColor=#fff2cc;strokeColor=#d6b656;" parent="1" vertex="1">
          <mxGeometry x="221.07" y="244" width="80" height="30" as="geometry" />
        </mxCell>
        <mxCell id="0dvyu7xRg7RrmKDCG1FK-67" value="전체" style="rounded=1;whiteSpace=wrap;html=1;fillColor=#ffffff;strokeColor=#d6b656;fontSize=11;" parent="1" vertex="1">
          <mxGeometry x="221.07" y="284" width="80" height="20" as="geometry" />
        </mxCell>
        <mxCell id="A5y9IBi3hMwTZEFRAEAs-2" value="" style="edgeStyle=orthogonalEdgeStyle;rounded=0;orthogonalLoop=1;jettySize=auto;html=1;endArrow=none;endFill=0;strokeColor=#9e9e9e;exitX=0.5;exitY=1;exitDx=0;exitDy=0;entryX=0.5;entryY=0;entryDx=0;entryDy=0;" parent="1" target="0dvyu7xRg7RrmKDCG1FK-67" edge="1">
          <mxGeometry relative="1" as="geometry">
            <mxPoint x="261.07" y="274" as="sourcePoint" />
            <mxPoint x="151.07" y="284" as="targetPoint" />
            <Array as="points" />
          </mxGeometry>
        </mxCell>
        <mxCell id="P94jC0ZwyTHtsRuPvJ_n-1" value="작업실" style="rounded=1;whiteSpace=wrap;html=1;fillColor=#fff2cc;strokeColor=#d6b656;" parent="1" vertex="1">
          <mxGeometry x="441.07" y="179" width="80" height="30" as="geometry" />
        </mxCell>
        <mxCell id="_TSB36N1gyCDnTx2Kz4D-2" value="메인페이지" style="rounded=1;whiteSpace=wrap;html=1;fillColor=#fbdb79;strokeColor=#d6b656;" parent="1" vertex="1">
          <mxGeometry x="441.57" y="-90" width="80" height="30" as="geometry" />
        </mxCell>
        <mxCell id="_TSB36N1gyCDnTx2Kz4D-8" value="" style="edgeStyle=orthogonalEdgeStyle;rounded=0;orthogonalLoop=1;jettySize=auto;html=1;endArrow=none;endFill=0;strokeColor=#9e9e9e;exitX=0.5;exitY=0;exitDx=0;exitDy=0;" parent="1" edge="1">
          <mxGeometry relative="1" as="geometry">
            <mxPoint x="698.93" y="179" as="sourcePoint" />
            <mxPoint x="201.07" y="179" as="targetPoint" />
            <Array as="points">
              <mxPoint x="699.0699999999999" y="159" />
              <mxPoint x="201.07" y="159" />
            </Array>
          </mxGeometry>
        </mxCell>
        <mxCell id="_TSB36N1gyCDnTx2Kz4D-9" value="" style="edgeStyle=orthogonalEdgeStyle;rounded=0;orthogonalLoop=1;jettySize=auto;html=1;endArrow=none;endFill=0;strokeColor=#9e9e9e;exitX=0.5;exitY=0;exitDx=0;exitDy=0;entryX=0.5;entryY=0;entryDx=0;entryDy=0;" parent="1" source="0dvyu7xRg7RrmKDCG1FK-30" target="0dvyu7xRg7RrmKDCG1FK-52" edge="1">
          <mxGeometry relative="1" as="geometry">
            <mxPoint x="541.0699999999999" y="169" as="sourcePoint" />
            <mxPoint x="410.07" y="169" as="targetPoint" />
            <Array as="points">
              <mxPoint x="591.0699999999999" y="159" />
              <mxPoint x="370.07" y="159" />
            </Array>
          </mxGeometry>
        </mxCell>
        <mxCell id="_TSB36N1gyCDnTx2Kz4D-10" value="" style="edgeStyle=orthogonalEdgeStyle;rounded=0;orthogonalLoop=1;jettySize=auto;html=1;endArrow=none;endFill=0;strokeColor=#9e9e9e;entryX=0.5;entryY=1;entryDx=0;entryDy=0;" parent="1" source="0dvyu7xRg7RrmKDCG1FK-5" target="_TSB36N1gyCDnTx2Kz4D-2" edge="1">
          <mxGeometry relative="1" as="geometry">
            <mxPoint x="630" y="380" as="sourcePoint" />
            <mxPoint x="485" y="420" as="targetPoint" />
            <Array as="points" />
          </mxGeometry>
        </mxCell>
        <mxCell id="LDmnW0OiDP1UQWlY4Xmx-5" value="" style="edgeStyle=orthogonalEdgeStyle;rounded=0;orthogonalLoop=1;jettySize=auto;html=1;endArrow=none;endFill=0;strokeColor=#9e9e9e;exitX=0.5;exitY=0;exitDx=0;exitDy=0;entryX=0.5;entryY=1;entryDx=0;entryDy=0;" parent="1" edge="1">
          <mxGeometry relative="1" as="geometry">
            <mxPoint x="341.44000000000005" y="-50" as="sourcePoint" />
            <mxPoint x="341.44000000000005" y="-60" as="targetPoint" />
            <Array as="points">
              <mxPoint x="341.44000000000005" y="-60" />
              <mxPoint x="341.44000000000005" y="-60" />
            </Array>
          </mxGeometry>
        </mxCell>
        <mxCell id="LDmnW0OiDP1UQWlY4Xmx-6" value="공지사항" style="rounded=1;whiteSpace=wrap;html=1;fillColor=#fff2cc;strokeColor=#d6b656;" parent="1" vertex="1">
          <mxGeometry x="660" y="179" width="80" height="30" as="geometry" />
        </mxCell>
        <mxCell id="LDmnW0OiDP1UQWlY4Xmx-7" value="&lt;font style=&quot;font-size: 11px;&quot;&gt;게시판&lt;/font&gt;" style="rounded=1;whiteSpace=wrap;html=1;fillColor=#ffffff;strokeColor=#d6b656;" parent="1" vertex="1">
          <mxGeometry x="660" y="219" width="80" height="20" as="geometry" />
        </mxCell>
        <mxCell id="LDmnW0OiDP1UQWlY4Xmx-8" value="" style="edgeStyle=orthogonalEdgeStyle;rounded=0;orthogonalLoop=1;jettySize=auto;html=1;endArrow=none;endFill=0;strokeColor=#9e9e9e;exitX=0.5;exitY=1;exitDx=0;exitDy=0;" parent="1" source="LDmnW0OiDP1UQWlY4Xmx-6" edge="1">
          <mxGeometry relative="1" as="geometry">
            <mxPoint x="644" y="219" as="sourcePoint" />
            <mxPoint x="700" y="219" as="targetPoint" />
            <Array as="points" />
          </mxGeometry>
        </mxCell>
        <mxCell id="LDmnW0OiDP1UQWlY4Xmx-9" value="운영참여" style="rounded=1;whiteSpace=wrap;html=1;fillColor=#fff2cc;strokeColor=#d6b656;" parent="1" vertex="1">
          <mxGeometry x="760" y="179" width="80" height="30" as="geometry" />
        </mxCell>
        <mxCell id="LDmnW0OiDP1UQWlY4Xmx-10" value="전체" style="rounded=1;whiteSpace=wrap;html=1;fillColor=#ffffff;strokeColor=#d6b656;fontSize=11;" parent="1" vertex="1">
          <mxGeometry x="760" y="219" width="80" height="20" as="geometry" />
        </mxCell>
        <mxCell id="LDmnW0OiDP1UQWlY4Xmx-11" value="" style="edgeStyle=orthogonalEdgeStyle;rounded=0;orthogonalLoop=1;jettySize=auto;html=1;endArrow=none;endFill=0;strokeColor=#9e9e9e;exitX=0.5;exitY=1;exitDx=0;exitDy=0;" parent="1" source="LDmnW0OiDP1UQWlY4Xmx-9" edge="1">
          <mxGeometry relative="1" as="geometry">
            <mxPoint x="744" y="219" as="sourcePoint" />
            <mxPoint x="800" y="219" as="targetPoint" />
            <Array as="points" />
          </mxGeometry>
        </mxCell>
        <mxCell id="LDmnW0OiDP1UQWlY4Xmx-12" value="문의" style="rounded=1;whiteSpace=wrap;html=1;fillColor=#ffffff;strokeColor=#d6b656;fontSize=11;" parent="1" vertex="1">
          <mxGeometry x="760" y="249" width="80" height="20" as="geometry" />
        </mxCell>
        <mxCell id="LDmnW0OiDP1UQWlY4Xmx-13" value="" style="edgeStyle=orthogonalEdgeStyle;rounded=0;orthogonalLoop=1;jettySize=auto;html=1;endArrow=none;endFill=0;strokeColor=#9e9e9e;exitX=0.5;exitY=1;exitDx=0;exitDy=0;" parent="1" edge="1">
          <mxGeometry relative="1" as="geometry">
            <mxPoint x="800" y="239" as="sourcePoint" />
            <mxPoint x="800" y="249" as="targetPoint" />
            <Array as="points" />
          </mxGeometry>
        </mxCell>
        <mxCell id="LDmnW0OiDP1UQWlY4Xmx-14" value="신고" style="rounded=1;whiteSpace=wrap;html=1;fillColor=#ffffff;strokeColor=#d6b656;fontSize=11;" parent="1" vertex="1">
          <mxGeometry x="760" y="279" width="80" height="20" as="geometry" />
        </mxCell>
        <mxCell id="LDmnW0OiDP1UQWlY4Xmx-15" value="" style="edgeStyle=orthogonalEdgeStyle;rounded=0;orthogonalLoop=1;jettySize=auto;html=1;endArrow=none;endFill=0;strokeColor=#9e9e9e;exitX=0.5;exitY=1;exitDx=0;exitDy=0;" parent="1" edge="1">
          <mxGeometry relative="1" as="geometry">
            <mxPoint x="800" y="269" as="sourcePoint" />
            <mxPoint x="800" y="279" as="targetPoint" />
            <Array as="points" />
          </mxGeometry>
        </mxCell>
        <mxCell id="LDmnW0OiDP1UQWlY4Xmx-16" value="제안" style="rounded=1;whiteSpace=wrap;html=1;fillColor=#ffffff;strokeColor=#d6b656;fontSize=11;" parent="1" vertex="1">
          <mxGeometry x="760" y="309" width="80" height="20" as="geometry" />
        </mxCell>
        <mxCell id="LDmnW0OiDP1UQWlY4Xmx-17" value="" style="edgeStyle=orthogonalEdgeStyle;rounded=0;orthogonalLoop=1;jettySize=auto;html=1;endArrow=none;endFill=0;strokeColor=#9e9e9e;exitX=0.5;exitY=1;exitDx=0;exitDy=0;" parent="1" edge="1">
          <mxGeometry relative="1" as="geometry">
            <mxPoint x="800" y="299" as="sourcePoint" />
            <mxPoint x="800" y="309" as="targetPoint" />
            <Array as="points" />
          </mxGeometry>
        </mxCell>
        <mxCell id="LDmnW0OiDP1UQWlY4Xmx-18" value="인증" style="rounded=1;whiteSpace=wrap;html=1;fillColor=#ffffff;strokeColor=#d6b656;fontSize=11;" parent="1" vertex="1">
          <mxGeometry x="760" y="339" width="80" height="20" as="geometry" />
        </mxCell>
        <mxCell id="LDmnW0OiDP1UQWlY4Xmx-19" value="" style="edgeStyle=orthogonalEdgeStyle;rounded=0;orthogonalLoop=1;jettySize=auto;html=1;endArrow=none;endFill=0;strokeColor=#9e9e9e;exitX=0.5;exitY=1;exitDx=0;exitDy=0;" parent="1" edge="1">
          <mxGeometry relative="1" as="geometry">
            <mxPoint x="800" y="329" as="sourcePoint" />
            <mxPoint x="800" y="339" as="targetPoint" />
            <Array as="points" />
          </mxGeometry>
        </mxCell>
        <mxCell id="LDmnW0OiDP1UQWlY4Xmx-20" value="마켓" style="rounded=1;whiteSpace=wrap;html=1;fillColor=#ffffff;strokeColor=#d6b656;fontSize=11;" parent="1" vertex="1">
          <mxGeometry x="760" y="369" width="80" height="20" as="geometry" />
        </mxCell>
        <mxCell id="LDmnW0OiDP1UQWlY4Xmx-21" value="" style="edgeStyle=orthogonalEdgeStyle;rounded=0;orthogonalLoop=1;jettySize=auto;html=1;endArrow=none;endFill=0;strokeColor=#9e9e9e;exitX=0.5;exitY=1;exitDx=0;exitDy=0;" parent="1" edge="1">
          <mxGeometry relative="1" as="geometry">
            <mxPoint x="800" y="359" as="sourcePoint" />
            <mxPoint x="800" y="369" as="targetPoint" />
            <Array as="points" />
          </mxGeometry>
        </mxCell>
        <mxCell id="LDmnW0OiDP1UQWlY4Xmx-22" value="기타" style="rounded=1;whiteSpace=wrap;html=1;fillColor=#ffffff;strokeColor=#d6b656;fontSize=11;" parent="1" vertex="1">
          <mxGeometry x="760" y="399" width="80" height="20" as="geometry" />
        </mxCell>
        <mxCell id="LDmnW0OiDP1UQWlY4Xmx-23" value="" style="edgeStyle=orthogonalEdgeStyle;rounded=0;orthogonalLoop=1;jettySize=auto;html=1;endArrow=none;endFill=0;strokeColor=#9e9e9e;exitX=0.5;exitY=1;exitDx=0;exitDy=0;" parent="1" edge="1">
          <mxGeometry relative="1" as="geometry">
            <mxPoint x="800" y="389" as="sourcePoint" />
            <mxPoint x="800" y="399" as="targetPoint" />
            <Array as="points" />
          </mxGeometry>
        </mxCell>
        <mxCell id="LDmnW0OiDP1UQWlY4Xmx-24" value="삽니다" style="rounded=1;whiteSpace=wrap;html=1;fillColor=#ffffff;strokeColor=#d6b656;fontSize=11;" parent="1" vertex="1">
          <mxGeometry x="221.07" y="314" width="80" height="20" as="geometry" />
        </mxCell>
        <mxCell id="LDmnW0OiDP1UQWlY4Xmx-25" value="" style="edgeStyle=orthogonalEdgeStyle;rounded=0;orthogonalLoop=1;jettySize=auto;html=1;endArrow=none;endFill=0;strokeColor=#9e9e9e;exitX=0.5;exitY=1;exitDx=0;exitDy=0;entryX=0.5;entryY=0;entryDx=0;entryDy=0;" parent="1" target="LDmnW0OiDP1UQWlY4Xmx-24" edge="1">
          <mxGeometry relative="1" as="geometry">
            <mxPoint x="261.07" y="304" as="sourcePoint" />
            <mxPoint x="151.07" y="314" as="targetPoint" />
            <Array as="points" />
          </mxGeometry>
        </mxCell>
        <mxCell id="LDmnW0OiDP1UQWlY4Xmx-26" value="팝니다" style="rounded=1;whiteSpace=wrap;html=1;fillColor=#ffffff;strokeColor=#d6b656;fontSize=11;" parent="1" vertex="1">
          <mxGeometry x="221.07" y="344" width="80" height="20" as="geometry" />
        </mxCell>
        <mxCell id="LDmnW0OiDP1UQWlY4Xmx-27" value="" style="edgeStyle=orthogonalEdgeStyle;rounded=0;orthogonalLoop=1;jettySize=auto;html=1;endArrow=none;endFill=0;strokeColor=#9e9e9e;exitX=0.5;exitY=1;exitDx=0;exitDy=0;entryX=0.5;entryY=0;entryDx=0;entryDy=0;" parent="1" target="LDmnW0OiDP1UQWlY4Xmx-26" edge="1">
          <mxGeometry relative="1" as="geometry">
            <mxPoint x="261.07" y="334" as="sourcePoint" />
            <mxPoint x="151.07" y="344" as="targetPoint" />
            <Array as="points" />
          </mxGeometry>
        </mxCell>
        <mxCell id="LDmnW0OiDP1UQWlY4Xmx-28" value="장소" style="rounded=1;whiteSpace=wrap;html=1;fillColor=#ffffff;strokeColor=#d6b656;fontSize=11;" parent="1" vertex="1">
          <mxGeometry x="221.07" y="374" width="80" height="20" as="geometry" />
        </mxCell>
        <mxCell id="LDmnW0OiDP1UQWlY4Xmx-29" value="" style="edgeStyle=orthogonalEdgeStyle;rounded=0;orthogonalLoop=1;jettySize=auto;html=1;endArrow=none;endFill=0;strokeColor=#9e9e9e;exitX=0.5;exitY=1;exitDx=0;exitDy=0;entryX=0.5;entryY=0;entryDx=0;entryDy=0;" parent="1" target="LDmnW0OiDP1UQWlY4Xmx-28" edge="1">
          <mxGeometry relative="1" as="geometry">
            <mxPoint x="261.07" y="364" as="sourcePoint" />
            <mxPoint x="151.07" y="374" as="targetPoint" />
            <Array as="points" />
          </mxGeometry>
        </mxCell>
        <mxCell id="LDmnW0OiDP1UQWlY4Xmx-30" value="레슨" style="rounded=1;whiteSpace=wrap;html=1;fillColor=#ffffff;strokeColor=#d6b656;fontSize=11;" parent="1" vertex="1">
          <mxGeometry x="221.07" y="404" width="80" height="20" as="geometry" />
        </mxCell>
        <mxCell id="LDmnW0OiDP1UQWlY4Xmx-31" value="" style="edgeStyle=orthogonalEdgeStyle;rounded=0;orthogonalLoop=1;jettySize=auto;html=1;endArrow=none;endFill=0;strokeColor=#9e9e9e;exitX=0.5;exitY=1;exitDx=0;exitDy=0;entryX=0.5;entryY=0;entryDx=0;entryDy=0;" parent="1" target="LDmnW0OiDP1UQWlY4Xmx-30" edge="1">
          <mxGeometry relative="1" as="geometry">
            <mxPoint x="261.07" y="394" as="sourcePoint" />
            <mxPoint x="151.07" y="404" as="targetPoint" />
            <Array as="points" />
          </mxGeometry>
        </mxCell>
        <mxCell id="LDmnW0OiDP1UQWlY4Xmx-32" value="디자인" style="rounded=1;whiteSpace=wrap;html=1;fillColor=#ffffff;strokeColor=#d6b656;fontSize=11;" parent="1" vertex="1">
          <mxGeometry x="221.07" y="434" width="80" height="20" as="geometry" />
        </mxCell>
        <mxCell id="LDmnW0OiDP1UQWlY4Xmx-33" value="" style="edgeStyle=orthogonalEdgeStyle;rounded=0;orthogonalLoop=1;jettySize=auto;html=1;endArrow=none;endFill=0;strokeColor=#9e9e9e;exitX=0.5;exitY=1;exitDx=0;exitDy=0;entryX=0.5;entryY=0;entryDx=0;entryDy=0;" parent="1" target="LDmnW0OiDP1UQWlY4Xmx-32" edge="1">
          <mxGeometry relative="1" as="geometry">
            <mxPoint x="261.07" y="424" as="sourcePoint" />
            <mxPoint x="151.07" y="434" as="targetPoint" />
            <Array as="points" />
          </mxGeometry>
        </mxCell>
        <mxCell id="LDmnW0OiDP1UQWlY4Xmx-34" value="장비" style="rounded=1;whiteSpace=wrap;html=1;fillColor=#ffffff;strokeColor=#d6b656;fontSize=11;" parent="1" vertex="1">
          <mxGeometry x="221.07" y="464" width="80" height="20" as="geometry" />
        </mxCell>
        <mxCell id="LDmnW0OiDP1UQWlY4Xmx-35" value="" style="edgeStyle=orthogonalEdgeStyle;rounded=0;orthogonalLoop=1;jettySize=auto;html=1;endArrow=none;endFill=0;strokeColor=#9e9e9e;exitX=0.5;exitY=1;exitDx=0;exitDy=0;entryX=0.5;entryY=0;entryDx=0;entryDy=0;" parent="1" target="LDmnW0OiDP1UQWlY4Xmx-34" edge="1">
          <mxGeometry relative="1" as="geometry">
            <mxPoint x="261.07" y="454" as="sourcePoint" />
            <mxPoint x="151.07" y="464" as="targetPoint" />
            <Array as="points" />
          </mxGeometry>
        </mxCell>
        <mxCell id="LDmnW0OiDP1UQWlY4Xmx-36" value="공식 굿즈샵" style="rounded=1;whiteSpace=wrap;html=1;fillColor=#fff2cc;strokeColor=#d6b656;" parent="1" vertex="1">
          <mxGeometry x="101.07000000000001" y="244" width="80" height="30" as="geometry" />
        </mxCell>
        <mxCell id="LDmnW0OiDP1UQWlY4Xmx-37" value="마켓" style="rounded=1;whiteSpace=wrap;html=1;fillColor=#fff2cc;strokeColor=#d6b656;" parent="1" vertex="1">
          <mxGeometry x="161.07" y="179" width="80" height="30" as="geometry" />
        </mxCell>
        <mxCell id="LDmnW0OiDP1UQWlY4Xmx-38" value="" style="edgeStyle=orthogonalEdgeStyle;rounded=0;orthogonalLoop=1;jettySize=auto;html=1;endArrow=none;endFill=0;strokeColor=#9e9e9e;" parent="1" edge="1">
          <mxGeometry relative="1" as="geometry">
            <mxPoint x="261.07" y="244" as="sourcePoint" />
            <mxPoint x="141.07" y="244" as="targetPoint" />
            <Array as="points">
              <mxPoint x="261.07" y="224" />
              <mxPoint x="141.07" y="224" />
            </Array>
          </mxGeometry>
        </mxCell>
        <mxCell id="LDmnW0OiDP1UQWlY4Xmx-40" value="" style="edgeStyle=orthogonalEdgeStyle;rounded=0;orthogonalLoop=1;jettySize=auto;html=1;endArrow=none;endFill=0;strokeColor=#9e9e9e;exitX=0.5;exitY=1;exitDx=0;exitDy=0;" parent="1" source="LDmnW0OiDP1UQWlY4Xmx-37" edge="1">
          <mxGeometry relative="1" as="geometry">
            <mxPoint x="201.04" y="214" as="sourcePoint" />
            <mxPoint x="201.04" y="224" as="targetPoint" />
            <Array as="points" />
          </mxGeometry>
        </mxCell>
        <mxCell id="LDmnW0OiDP1UQWlY4Xmx-42" value="" style="edgeStyle=orthogonalEdgeStyle;rounded=0;orthogonalLoop=1;jettySize=auto;html=1;endArrow=none;endFill=0;strokeColor=#9e9e9e;exitX=0.5;exitY=1;exitDx=0;exitDy=0;" parent="1" source="LDmnW0OiDP1UQWlY4Xmx-36" edge="1">
          <mxGeometry relative="1" as="geometry">
            <mxPoint x="141.02999999999997" y="284" as="sourcePoint" />
            <mxPoint x="141.07" y="289" as="targetPoint" />
            <Array as="points" />
          </mxGeometry>
        </mxCell>
        <mxCell id="LDmnW0OiDP1UQWlY4Xmx-43" value="장바구니" style="rounded=1;whiteSpace=wrap;html=1;fillColor=#fff2cc;strokeColor=#d6b656;" parent="1" vertex="1">
          <mxGeometry x="101.07000000000001" y="289" width="80" height="30" as="geometry" />
        </mxCell>
        <mxCell id="LDmnW0OiDP1UQWlY4Xmx-44" value="구매" style="rounded=1;whiteSpace=wrap;html=1;fillColor=#fff2cc;strokeColor=#d6b656;" parent="1" vertex="1">
          <mxGeometry x="101.07000000000001" y="334" width="80" height="30" as="geometry" />
        </mxCell>
        <mxCell id="LDmnW0OiDP1UQWlY4Xmx-45" value="" style="edgeStyle=orthogonalEdgeStyle;rounded=0;orthogonalLoop=1;jettySize=auto;html=1;endArrow=none;endFill=0;strokeColor=#9e9e9e;exitX=0.5;exitY=1;exitDx=0;exitDy=0;" parent="1" edge="1">
          <mxGeometry relative="1" as="geometry">
            <mxPoint x="141" y="319" as="sourcePoint" />
            <mxPoint x="141" y="334" as="targetPoint" />
            <Array as="points" />
          </mxGeometry>
        </mxCell>
        <mxCell id="LDmnW0OiDP1UQWlY4Xmx-48" value="전체" style="rounded=1;whiteSpace=wrap;html=1;fillColor=#ffffff;strokeColor=#d6b656;fontSize=11;" parent="1" vertex="1">
          <mxGeometry x="330.07" y="219" width="80" height="20" as="geometry" />
        </mxCell>
        <mxCell id="LDmnW0OiDP1UQWlY4Xmx-49" value="" style="edgeStyle=orthogonalEdgeStyle;rounded=0;orthogonalLoop=1;jettySize=auto;html=1;endArrow=none;endFill=0;strokeColor=#9e9e9e;exitX=0.5;exitY=1;exitDx=0;exitDy=0;entryX=0.5;entryY=0;entryDx=0;entryDy=0;" parent="1" target="LDmnW0OiDP1UQWlY4Xmx-48" edge="1">
          <mxGeometry relative="1" as="geometry">
            <mxPoint x="370.07" y="209" as="sourcePoint" />
            <mxPoint x="260.07" y="219" as="targetPoint" />
            <Array as="points" />
          </mxGeometry>
        </mxCell>
        <mxCell id="LDmnW0OiDP1UQWlY4Xmx-50" value="인기글" style="rounded=1;whiteSpace=wrap;html=1;fillColor=#ffffff;strokeColor=#d6b656;fontSize=11;" parent="1" vertex="1">
          <mxGeometry x="330.07" y="249" width="80" height="20" as="geometry" />
        </mxCell>
        <mxCell id="LDmnW0OiDP1UQWlY4Xmx-51" value="" style="edgeStyle=orthogonalEdgeStyle;rounded=0;orthogonalLoop=1;jettySize=auto;html=1;endArrow=none;endFill=0;strokeColor=#9e9e9e;exitX=0.5;exitY=1;exitDx=0;exitDy=0;entryX=0.5;entryY=0;entryDx=0;entryDy=0;" parent="1" target="LDmnW0OiDP1UQWlY4Xmx-50" edge="1">
          <mxGeometry relative="1" as="geometry">
            <mxPoint x="370.07" y="239" as="sourcePoint" />
            <mxPoint x="260.07" y="249" as="targetPoint" />
            <Array as="points" />
          </mxGeometry>
        </mxCell>
        <mxCell id="LDmnW0OiDP1UQWlY4Xmx-52" value="일반" style="rounded=1;whiteSpace=wrap;html=1;fillColor=#ffffff;strokeColor=#d6b656;fontSize=11;" parent="1" vertex="1">
          <mxGeometry x="330.07" y="279" width="80" height="20" as="geometry" />
        </mxCell>
        <mxCell id="LDmnW0OiDP1UQWlY4Xmx-53" value="" style="edgeStyle=orthogonalEdgeStyle;rounded=0;orthogonalLoop=1;jettySize=auto;html=1;endArrow=none;endFill=0;strokeColor=#9e9e9e;exitX=0.5;exitY=1;exitDx=0;exitDy=0;entryX=0.5;entryY=0;entryDx=0;entryDy=0;" parent="1" target="LDmnW0OiDP1UQWlY4Xmx-52" edge="1">
          <mxGeometry relative="1" as="geometry">
            <mxPoint x="370.07" y="269" as="sourcePoint" />
            <mxPoint x="260.07" y="279" as="targetPoint" />
            <Array as="points" />
          </mxGeometry>
        </mxCell>
        <mxCell id="LDmnW0OiDP1UQWlY4Xmx-54" value="음악" style="rounded=1;whiteSpace=wrap;html=1;fillColor=#ffffff;strokeColor=#d6b656;fontSize=11;" parent="1" vertex="1">
          <mxGeometry x="330.07" y="309" width="80" height="20" as="geometry" />
        </mxCell>
        <mxCell id="LDmnW0OiDP1UQWlY4Xmx-55" value="" style="edgeStyle=orthogonalEdgeStyle;rounded=0;orthogonalLoop=1;jettySize=auto;html=1;endArrow=none;endFill=0;strokeColor=#9e9e9e;exitX=0.5;exitY=1;exitDx=0;exitDy=0;entryX=0.5;entryY=0;entryDx=0;entryDy=0;" parent="1" target="LDmnW0OiDP1UQWlY4Xmx-54" edge="1">
          <mxGeometry relative="1" as="geometry">
            <mxPoint x="370.07" y="299" as="sourcePoint" />
            <mxPoint x="260.07" y="309" as="targetPoint" />
            <Array as="points" />
          </mxGeometry>
        </mxCell>
        <mxCell id="LDmnW0OiDP1UQWlY4Xmx-56" value="인증/후기" style="rounded=1;whiteSpace=wrap;html=1;fillColor=#ffffff;strokeColor=#d6b656;fontSize=11;" parent="1" vertex="1">
          <mxGeometry x="330.07" y="339" width="80" height="20" as="geometry" />
        </mxCell>
        <mxCell id="LDmnW0OiDP1UQWlY4Xmx-57" value="" style="edgeStyle=orthogonalEdgeStyle;rounded=0;orthogonalLoop=1;jettySize=auto;html=1;endArrow=none;endFill=0;strokeColor=#9e9e9e;exitX=0.5;exitY=1;exitDx=0;exitDy=0;entryX=0.5;entryY=0;entryDx=0;entryDy=0;" parent="1" target="LDmnW0OiDP1UQWlY4Xmx-56" edge="1">
          <mxGeometry relative="1" as="geometry">
            <mxPoint x="370.07" y="329" as="sourcePoint" />
            <mxPoint x="260.07" y="339" as="targetPoint" />
            <Array as="points" />
          </mxGeometry>
        </mxCell>
        <mxCell id="LDmnW0OiDP1UQWlY4Xmx-58" value="질문" style="rounded=1;whiteSpace=wrap;html=1;fillColor=#ffffff;strokeColor=#d6b656;fontSize=11;" parent="1" vertex="1">
          <mxGeometry x="330.07" y="369" width="80" height="20" as="geometry" />
        </mxCell>
        <mxCell id="LDmnW0OiDP1UQWlY4Xmx-59" value="" style="edgeStyle=orthogonalEdgeStyle;rounded=0;orthogonalLoop=1;jettySize=auto;html=1;endArrow=none;endFill=0;strokeColor=#9e9e9e;exitX=0.5;exitY=1;exitDx=0;exitDy=0;entryX=0.5;entryY=0;entryDx=0;entryDy=0;" parent="1" target="LDmnW0OiDP1UQWlY4Xmx-58" edge="1">
          <mxGeometry relative="1" as="geometry">
            <mxPoint x="370.07" y="359" as="sourcePoint" />
            <mxPoint x="260.07" y="369" as="targetPoint" />
            <Array as="points" />
          </mxGeometry>
        </mxCell>
        <mxCell id="LDmnW0OiDP1UQWlY4Xmx-60" value="홍보" style="rounded=1;whiteSpace=wrap;html=1;fillColor=#ffffff;strokeColor=#d6b656;fontSize=11;" parent="1" vertex="1">
          <mxGeometry x="330.07" y="399" width="80" height="20" as="geometry" />
        </mxCell>
        <mxCell id="LDmnW0OiDP1UQWlY4Xmx-61" value="" style="edgeStyle=orthogonalEdgeStyle;rounded=0;orthogonalLoop=1;jettySize=auto;html=1;endArrow=none;endFill=0;strokeColor=#9e9e9e;exitX=0.5;exitY=1;exitDx=0;exitDy=0;entryX=0.5;entryY=0;entryDx=0;entryDy=0;" parent="1" target="LDmnW0OiDP1UQWlY4Xmx-60" edge="1">
          <mxGeometry relative="1" as="geometry">
            <mxPoint x="370.07" y="389" as="sourcePoint" />
            <mxPoint x="260.07" y="399" as="targetPoint" />
            <Array as="points" />
          </mxGeometry>
        </mxCell>
        <mxCell id="LDmnW0OiDP1UQWlY4Xmx-63" value="기타" style="rounded=1;whiteSpace=wrap;html=1;fillColor=#ffffff;strokeColor=#d6b656;fontSize=11;" parent="1" vertex="1">
          <mxGeometry x="330.07" y="429" width="80" height="20" as="geometry" />
        </mxCell>
        <mxCell id="LDmnW0OiDP1UQWlY4Xmx-64" value="" style="edgeStyle=orthogonalEdgeStyle;rounded=0;orthogonalLoop=1;jettySize=auto;html=1;endArrow=none;endFill=0;strokeColor=#9e9e9e;exitX=0.5;exitY=1;exitDx=0;exitDy=0;entryX=0.5;entryY=0;entryDx=0;entryDy=0;" parent="1" target="LDmnW0OiDP1UQWlY4Xmx-63" edge="1">
          <mxGeometry relative="1" as="geometry">
            <mxPoint x="370.07" y="419" as="sourcePoint" />
            <mxPoint x="260.07" y="429" as="targetPoint" />
            <Array as="points" />
          </mxGeometry>
        </mxCell>
        <mxCell id="LDmnW0OiDP1UQWlY4Xmx-65" value="전체" style="rounded=1;whiteSpace=wrap;html=1;fillColor=#ffffff;strokeColor=#d6b656;fontSize=11;" parent="1" vertex="1">
          <mxGeometry x="441.07" y="219" width="80" height="20" as="geometry" />
        </mxCell>
        <mxCell id="LDmnW0OiDP1UQWlY4Xmx-66" value="" style="edgeStyle=orthogonalEdgeStyle;rounded=0;orthogonalLoop=1;jettySize=auto;html=1;endArrow=none;endFill=0;strokeColor=#9e9e9e;exitX=0.5;exitY=1;exitDx=0;exitDy=0;entryX=0.5;entryY=0;entryDx=0;entryDy=0;" parent="1" target="LDmnW0OiDP1UQWlY4Xmx-65" edge="1">
          <mxGeometry relative="1" as="geometry">
            <mxPoint x="481.07" y="209" as="sourcePoint" />
            <mxPoint x="371.07" y="219" as="targetPoint" />
            <Array as="points" />
          </mxGeometry>
        </mxCell>
        <mxCell id="LDmnW0OiDP1UQWlY4Xmx-67" value="발라드" style="rounded=1;whiteSpace=wrap;html=1;fillColor=#ffffff;strokeColor=#d6b656;fontSize=11;" parent="1" vertex="1">
          <mxGeometry x="441.07" y="249" width="80" height="20" as="geometry" />
        </mxCell>
        <mxCell id="LDmnW0OiDP1UQWlY4Xmx-68" value="" style="edgeStyle=orthogonalEdgeStyle;rounded=0;orthogonalLoop=1;jettySize=auto;html=1;endArrow=none;endFill=0;strokeColor=#9e9e9e;exitX=0.5;exitY=1;exitDx=0;exitDy=0;entryX=0.5;entryY=0;entryDx=0;entryDy=0;" parent="1" target="LDmnW0OiDP1UQWlY4Xmx-67" edge="1">
          <mxGeometry relative="1" as="geometry">
            <mxPoint x="481.07" y="239" as="sourcePoint" />
            <mxPoint x="371.07" y="249" as="targetPoint" />
            <Array as="points" />
          </mxGeometry>
        </mxCell>
        <mxCell id="LDmnW0OiDP1UQWlY4Xmx-69" value="랩/힙합" style="rounded=1;whiteSpace=wrap;html=1;fillColor=#ffffff;strokeColor=#d6b656;fontSize=11;" parent="1" vertex="1">
          <mxGeometry x="441.07" y="279" width="80" height="20" as="geometry" />
        </mxCell>
        <mxCell id="LDmnW0OiDP1UQWlY4Xmx-70" value="" style="edgeStyle=orthogonalEdgeStyle;rounded=0;orthogonalLoop=1;jettySize=auto;html=1;endArrow=none;endFill=0;strokeColor=#9e9e9e;exitX=0.5;exitY=1;exitDx=0;exitDy=0;entryX=0.5;entryY=0;entryDx=0;entryDy=0;" parent="1" target="LDmnW0OiDP1UQWlY4Xmx-69" edge="1">
          <mxGeometry relative="1" as="geometry">
            <mxPoint x="481.07" y="269" as="sourcePoint" />
            <mxPoint x="371.07" y="279" as="targetPoint" />
            <Array as="points" />
          </mxGeometry>
        </mxCell>
        <mxCell id="LDmnW0OiDP1UQWlY4Xmx-71" value="R&amp;amp;B/Soul" style="rounded=1;whiteSpace=wrap;html=1;fillColor=#ffffff;strokeColor=#d6b656;fontSize=11;" parent="1" vertex="1">
          <mxGeometry x="441.07" y="309" width="80" height="20" as="geometry" />
        </mxCell>
        <mxCell id="LDmnW0OiDP1UQWlY4Xmx-72" value="" style="edgeStyle=orthogonalEdgeStyle;rounded=0;orthogonalLoop=1;jettySize=auto;html=1;endArrow=none;endFill=0;strokeColor=#9e9e9e;exitX=0.5;exitY=1;exitDx=0;exitDy=0;entryX=0.5;entryY=0;entryDx=0;entryDy=0;" parent="1" target="LDmnW0OiDP1UQWlY4Xmx-71" edge="1">
          <mxGeometry relative="1" as="geometry">
            <mxPoint x="481.07" y="299" as="sourcePoint" />
            <mxPoint x="371.07" y="309" as="targetPoint" />
            <Array as="points" />
          </mxGeometry>
        </mxCell>
        <mxCell id="LDmnW0OiDP1UQWlY4Xmx-73" value="댄스" style="rounded=1;whiteSpace=wrap;html=1;fillColor=#ffffff;strokeColor=#d6b656;fontSize=11;" parent="1" vertex="1">
          <mxGeometry x="441.07" y="339" width="80" height="20" as="geometry" />
        </mxCell>
        <mxCell id="LDmnW0OiDP1UQWlY4Xmx-74" value="" style="edgeStyle=orthogonalEdgeStyle;rounded=0;orthogonalLoop=1;jettySize=auto;html=1;endArrow=none;endFill=0;strokeColor=#9e9e9e;exitX=0.5;exitY=1;exitDx=0;exitDy=0;entryX=0.5;entryY=0;entryDx=0;entryDy=0;" parent="1" target="LDmnW0OiDP1UQWlY4Xmx-73" edge="1">
          <mxGeometry relative="1" as="geometry">
            <mxPoint x="481.07" y="329" as="sourcePoint" />
            <mxPoint x="371.07" y="339" as="targetPoint" />
            <Array as="points" />
          </mxGeometry>
        </mxCell>
        <mxCell id="LDmnW0OiDP1UQWlY4Xmx-75" value="인디" style="rounded=1;whiteSpace=wrap;html=1;fillColor=#ffffff;strokeColor=#d6b656;fontSize=11;" parent="1" vertex="1">
          <mxGeometry x="441.07" y="369" width="80" height="20" as="geometry" />
        </mxCell>
        <mxCell id="LDmnW0OiDP1UQWlY4Xmx-76" value="" style="edgeStyle=orthogonalEdgeStyle;rounded=0;orthogonalLoop=1;jettySize=auto;html=1;endArrow=none;endFill=0;strokeColor=#9e9e9e;exitX=0.5;exitY=1;exitDx=0;exitDy=0;entryX=0.5;entryY=0;entryDx=0;entryDy=0;" parent="1" target="LDmnW0OiDP1UQWlY4Xmx-75" edge="1">
          <mxGeometry relative="1" as="geometry">
            <mxPoint x="481.07" y="359" as="sourcePoint" />
            <mxPoint x="371.07" y="369" as="targetPoint" />
            <Array as="points" />
          </mxGeometry>
        </mxCell>
        <mxCell id="LDmnW0OiDP1UQWlY4Xmx-77" value="록/메탈" style="rounded=1;whiteSpace=wrap;html=1;fillColor=#ffffff;strokeColor=#d6b656;fontSize=11;" parent="1" vertex="1">
          <mxGeometry x="441.07" y="399" width="80" height="20" as="geometry" />
        </mxCell>
        <mxCell id="LDmnW0OiDP1UQWlY4Xmx-78" value="" style="edgeStyle=orthogonalEdgeStyle;rounded=0;orthogonalLoop=1;jettySize=auto;html=1;endArrow=none;endFill=0;strokeColor=#9e9e9e;exitX=0.5;exitY=1;exitDx=0;exitDy=0;entryX=0.5;entryY=0;entryDx=0;entryDy=0;" parent="1" target="LDmnW0OiDP1UQWlY4Xmx-77" edge="1">
          <mxGeometry relative="1" as="geometry">
            <mxPoint x="481.07" y="389" as="sourcePoint" />
            <mxPoint x="371.07" y="399" as="targetPoint" />
            <Array as="points" />
          </mxGeometry>
        </mxCell>
        <mxCell id="LDmnW0OiDP1UQWlY4Xmx-79" value="pop" style="rounded=1;whiteSpace=wrap;html=1;fillColor=#ffffff;strokeColor=#d6b656;fontSize=11;" parent="1" vertex="1">
          <mxGeometry x="441.07" y="429" width="80" height="20" as="geometry" />
        </mxCell>
        <mxCell id="LDmnW0OiDP1UQWlY4Xmx-80" value="" style="edgeStyle=orthogonalEdgeStyle;rounded=0;orthogonalLoop=1;jettySize=auto;html=1;endArrow=none;endFill=0;strokeColor=#9e9e9e;exitX=0.5;exitY=1;exitDx=0;exitDy=0;entryX=0.5;entryY=0;entryDx=0;entryDy=0;" parent="1" target="LDmnW0OiDP1UQWlY4Xmx-79" edge="1">
          <mxGeometry relative="1" as="geometry">
            <mxPoint x="481.07" y="419" as="sourcePoint" />
            <mxPoint x="371.07" y="429" as="targetPoint" />
            <Array as="points" />
          </mxGeometry>
        </mxCell>
        <mxCell id="LDmnW0OiDP1UQWlY4Xmx-81" value="기타" style="rounded=1;whiteSpace=wrap;html=1;fillColor=#ffffff;strokeColor=#d6b656;fontSize=11;" parent="1" vertex="1">
          <mxGeometry x="441.07" y="459" width="80" height="20" as="geometry" />
        </mxCell>
        <mxCell id="LDmnW0OiDP1UQWlY4Xmx-82" value="" style="edgeStyle=orthogonalEdgeStyle;rounded=0;orthogonalLoop=1;jettySize=auto;html=1;endArrow=none;endFill=0;strokeColor=#9e9e9e;exitX=0.5;exitY=1;exitDx=0;exitDy=0;entryX=0.5;entryY=0;entryDx=0;entryDy=0;" parent="1" target="LDmnW0OiDP1UQWlY4Xmx-81" edge="1">
          <mxGeometry relative="1" as="geometry">
            <mxPoint x="481.07" y="449" as="sourcePoint" />
            <mxPoint x="371.07" y="459" as="targetPoint" />
            <Array as="points" />
          </mxGeometry>
        </mxCell>
        <mxCell id="LDmnW0OiDP1UQWlY4Xmx-83" value="" style="edgeStyle=orthogonalEdgeStyle;rounded=0;orthogonalLoop=1;jettySize=auto;html=1;endArrow=none;endFill=0;strokeColor=#9e9e9e;exitX=0.5;exitY=0;exitDx=0;exitDy=0;" parent="1" source="0dvyu7xRg7RrmKDCG1FK-38" edge="1">
          <mxGeometry relative="1" as="geometry">
            <mxPoint x="701" y="-130.00000000000023" as="sourcePoint" />
            <mxPoint x="480" y="30" as="targetPoint" />
            <Array as="points">
              <mxPoint x="345" y="30" />
            </Array>
          </mxGeometry>
        </mxCell>
        <mxCell id="LDmnW0OiDP1UQWlY4Xmx-84" value="" style="edgeStyle=orthogonalEdgeStyle;rounded=0;orthogonalLoop=1;jettySize=auto;html=1;endArrow=none;endFill=0;strokeColor=#9e9e9e;exitX=1;exitY=0.5;exitDx=0;exitDy=0;entryX=0.5;entryY=0;entryDx=0;entryDy=0;" parent="1" target="LDmnW0OiDP1UQWlY4Xmx-9" edge="1">
          <mxGeometry relative="1" as="geometry">
            <mxPoint x="699" y="159" as="sourcePoint" />
            <mxPoint x="800" y="178" as="targetPoint" />
            <Array as="points">
              <mxPoint x="800" y="159" />
            </Array>
          </mxGeometry>
        </mxCell>
        <mxCell id="LDmnW0OiDP1UQWlY4Xmx-85" value="" style="edgeStyle=orthogonalEdgeStyle;rounded=0;orthogonalLoop=1;jettySize=auto;html=1;endArrow=none;endFill=0;strokeColor=#9e9e9e;entryX=0.5;entryY=1;entryDx=0;entryDy=0;" parent="1" edge="1">
          <mxGeometry relative="1" as="geometry">
            <mxPoint x="649.9400000000002" y="30" as="sourcePoint" />
            <mxPoint x="649.9400000000002" y="20" as="targetPoint" />
            <Array as="points">
              <mxPoint x="650.19" y="20" />
            </Array>
          </mxGeometry>
        </mxCell>
        <mxCell id="LDmnW0OiDP1UQWlY4Xmx-88" value="&lt;div style=&quot;font-size: 10px;&quot;&gt;좋아요&lt;/div&gt;" style="rounded=1;whiteSpace=wrap;html=1;fillColor=#ffffff;strokeColor=#d6b656;fontSize=11;" parent="1" vertex="1">
          <mxGeometry x="610" y="90" width="80" height="20" as="geometry" />
        </mxCell>
        <mxCell id="LDmnW0OiDP1UQWlY4Xmx-89" value="" style="edgeStyle=orthogonalEdgeStyle;rounded=0;orthogonalLoop=1;jettySize=auto;html=1;endArrow=none;endFill=0;strokeColor=#9e9e9e;entryX=0.5;entryY=1;entryDx=0;entryDy=0;" parent="1" edge="1">
          <mxGeometry relative="1" as="geometry">
            <mxPoint x="649.7500000000001" y="90" as="sourcePoint" />
            <mxPoint x="649.7500000000001" y="80" as="targetPoint" />
            <Array as="points" />
          </mxGeometry>
        </mxCell>
        <mxCell id="LDmnW0OiDP1UQWlY4Xmx-90" value="&lt;div style=&quot;&quot;&gt;주문내역&lt;/div&gt;" style="rounded=1;whiteSpace=wrap;html=1;fillColor=#ffffff;strokeColor=#d6b656;fontSize=11;" parent="1" vertex="1">
          <mxGeometry x="610" y="120" width="80" height="20" as="geometry" />
        </mxCell>
        <mxCell id="LDmnW0OiDP1UQWlY4Xmx-91" value="" style="edgeStyle=orthogonalEdgeStyle;rounded=0;orthogonalLoop=1;jettySize=auto;html=1;endArrow=none;endFill=0;strokeColor=#9e9e9e;entryX=0.5;entryY=1;entryDx=0;entryDy=0;" parent="1" edge="1">
          <mxGeometry relative="1" as="geometry">
            <mxPoint x="649.7500000000001" y="120" as="sourcePoint" />
            <mxPoint x="649.7500000000001" y="110" as="targetPoint" />
            <Array as="points" />
          </mxGeometry>
        </mxCell>
        <mxCell id="LDmnW0OiDP1UQWlY4Xmx-92" value="" style="edgeStyle=orthogonalEdgeStyle;rounded=0;orthogonalLoop=1;jettySize=auto;html=1;endArrow=none;endFill=0;strokeColor=#9e9e9e;entryX=0.5;entryY=1;entryDx=0;entryDy=0;" parent="1" source="P94jC0ZwyTHtsRuPvJ_n-1" edge="1">
          <mxGeometry relative="1" as="geometry">
            <mxPoint x="481" y="210" as="sourcePoint" />
            <mxPoint x="481.07000000000016" y="-21" as="targetPoint" />
            <Array as="points" />
          </mxGeometry>
        </mxCell>
        <mxCell id="0dvyu7xRg7RrmKDCG1FK-5" value="로그인" style="rounded=1;whiteSpace=wrap;html=1;fillColor=#fff2cc;strokeColor=#d6b656;" parent="1" vertex="1">
          <mxGeometry x="441.07" y="-40" width="80" height="30" as="geometry" />
        </mxCell>
        <mxCell id="LDmnW0OiDP1UQWlY4Xmx-93" value="" style="edgeStyle=orthogonalEdgeStyle;rounded=0;orthogonalLoop=1;jettySize=auto;html=1;endArrow=none;endFill=0;strokeColor=#9e9e9e;entryX=1;entryY=0.5;entryDx=0;entryDy=0;exitX=0;exitY=0.5;exitDx=0;exitDy=0;" parent="1" source="_TSB36N1gyCDnTx2Kz4D-2" target="0dvyu7xRg7RrmKDCG1FK-1" edge="1">
          <mxGeometry relative="1" as="geometry">
            <mxPoint x="440" y="-75" as="sourcePoint" />
            <mxPoint x="350" y="17.25" as="targetPoint" />
            <Array as="points" />
          </mxGeometry>
        </mxCell>
        <mxCell id="LDmnW0OiDP1UQWlY4Xmx-94" value="" style="edgeStyle=orthogonalEdgeStyle;rounded=0;orthogonalLoop=1;jettySize=auto;html=1;endArrow=none;endFill=0;strokeColor=#9e9e9e;exitX=0;exitY=0.5;exitDx=0;exitDy=0;entryX=1;entryY=0.5;entryDx=0;entryDy=0;" parent="1" source="0dvyu7xRg7RrmKDCG1FK-15" target="0dvyu7xRg7RrmKDCG1FK-5" edge="1">
          <mxGeometry relative="1" as="geometry">
            <mxPoint x="355" y="70" as="sourcePoint" />
            <mxPoint x="490" y="40" as="targetPoint" />
            <Array as="points">
              <mxPoint x="530" y="-25" />
              <mxPoint x="530" y="-25" />
            </Array>
          </mxGeometry>
        </mxCell>
        <mxCell id="LDmnW0OiDP1UQWlY4Xmx-95" value="정보 수정/탈퇴" style="rounded=1;whiteSpace=wrap;html=1;fillColor=#ffffff;strokeColor=#d6b656;fontSize=10;" parent="1" vertex="1">
          <mxGeometry x="710" width="80" height="20" as="geometry" />
        </mxCell>
        <mxCell id="LDmnW0OiDP1UQWlY4Xmx-98" value="" style="edgeStyle=orthogonalEdgeStyle;rounded=0;orthogonalLoop=1;jettySize=auto;html=1;endArrow=none;endFill=0;strokeColor=#9e9e9e;exitX=0;exitY=0.5;exitDx=0;exitDy=0;entryX=1;entryY=0.5;entryDx=0;entryDy=0;" parent="1" source="LDmnW0OiDP1UQWlY4Xmx-95" target="0dvyu7xRg7RrmKDCG1FK-17" edge="1">
          <mxGeometry relative="1" as="geometry">
            <mxPoint x="859" y="-40" as="sourcePoint" />
            <mxPoint x="770" y="-40" as="targetPoint" />
            <Array as="points">
              <mxPoint x="700" y="10" />
              <mxPoint x="700" y="10" />
            </Array>
          </mxGeometry>
        </mxCell>
      </root>
    </mxGraphModel>
  </diagram>
  <diagram id="xNR_wR3gsrpRQzBDr1mU" name="페이지-2">
    <mxGraphModel grid="1" page="1" gridSize="10" guides="1" tooltips="1" connect="1" arrows="1" fold="1" pageScale="1" pageWidth="827" pageHeight="1169" math="0" shadow="0">
      <root>
        <mxCell id="0" />
        <mxCell id="1" parent="0" />
      </root>
    </mxGraphModel>
  </diagram>
</mxfile>
